<?xml version="1.0" standalone="no"?><!DOCTYPE svg PUBLIC "-//W3C//DTD SVG 1.1//EN" "http://www.w3.org/Graphics/SVG/1.1/DTD/svg11.dtd"><svg t="1580651576876" class="icon" viewBox="0 0 1024 1024" version="1.1" xmlns="http://www.w3.org/2000/svg" p-id="1143" xmlns:xlink="http://www.w3.org/1999/xlink" width="200" height="200"><defs><style type="text/css"></style></defs><path d="M884.87589401 401.80991967L646.97050599 401.80991967c92.18556199-340.464205-63.516616-357.853247-63.516616-357.85324701-65.993017 0-52.312436 52.182476-57.3031 60.88160201 0 166.502152-176.849824 296.971645-176.849824 296.971645l0 472.171899c0 46.607504 63.516616 63.393819 88.43309801 63.393819l357.452111 0c33.641191 0 61.03612201-88.224344 61.036122-88.224344 88.43412199-300.70569001 88.43412199-390.177444 88.434122-390.177444C944.65744201 396.84586167 884.87589401 401.80991967 884.87589401 401.80991967L884.87589401 401.80991967 884.87589401 401.80991967zM884.87589401 401.80991967" p-id="1144" fill="#cdcdcd"></path><path d="M251.671415 401.96648567L109.214912 401.96648567c-29.420053 0-29.87337799 28.89612-29.87337799 28.89612l29.42005299 476.20270299c0 30.30930599 30.361495 30.30930599 30.36149501 30.30930601L262.420223 937.37461467c25.686009 0 25.458835-20.04963801 25.45883501-20.04963801L287.87905799 438.07793767C287.87905799 401.50395067 251.671415 401.96648567 251.671415 401.96648567L251.671415 401.96648567 251.671415 401.96648567zM251.671415 401.96648567" p-id="1145" fill="#cdcdcd"></path></svg>